<svg width="284" height="861" viewBox="0 0 284 861" fill="none" xmlns="http://www.w3.org/2000/svg">
<g opacity="0.8">
<mask id="mask0" mask-type="alpha" maskUnits="userSpaceOnUse" x="0" y="0" width="285" height="861">
<path d="M284 860.5L-3.61634e-05 576L-4.68431e-05 0.000646559L284 284.5L284 860.5Z" fill="#C4C4C4"/>
</mask>
<g mask="url(#mask0)">
<circle cx="206" cy="315" r="4" fill="#4fd7e4"/>
<circle cx="206" cy="635" r="4" fill="#4fd7e4"/>
<circle cx="206" cy="443" r="4" fill="#4fd7e4"/>
<circle cx="206" cy="123" r="4" fill="#4fd7e4"/>
<circle cx="206" cy="763" r="4" fill="#4fd7e4"/>
<circle cx="206" cy="283" r="4" fill="#4fd7e4"/>
<circle cx="206" cy="603" r="4" fill="#4fd7e4"/>
<circle cx="206" cy="251" r="4" fill="#4fd7e4"/>
<circle cx="206" cy="571" r="4" fill="#4fd7e4"/>
<circle cx="206" cy="347" r="4" fill="#4fd7e4"/>
<circle cx="206" cy="27" r="4" fill="#4fd7e4"/>
<circle cx="206" cy="667" r="4" fill="#4fd7e4"/>
<circle cx="206" cy="475" r="4" fill="#4fd7e4"/>
<circle cx="206" cy="155" r="4" fill="#4fd7e4"/>
<circle cx="206" cy="795" r="4" fill="#4fd7e4"/>
<circle cx="206" cy="379" r="4" fill="#4fd7e4"/>
<circle cx="206" cy="59" r="4" fill="#4fd7e4"/>
<circle cx="206" cy="699" r="4" fill="#4fd7e4"/>
<circle cx="206" cy="507" r="4" fill="#4fd7e4"/>
<circle cx="206" cy="187" r="4" fill="#4fd7e4"/>
<circle cx="206" cy="827" r="4" fill="#4fd7e4"/>
<circle cx="206" cy="411" r="4" fill="#4fd7e4"/>
<circle cx="206" cy="91" r="4" fill="#4fd7e4"/>
<circle cx="206" cy="731" r="4" fill="#4fd7e4"/>
<circle cx="206" cy="539" r="4" fill="#4fd7e4"/>
<circle cx="206" cy="219" r="4" fill="#4fd7e4"/>
<circle cx="206" cy="859" r="4" fill="#4fd7e4"/>
<circle cx="270" cy="251" r="4" fill="#4fd7e4"/>
<circle cx="270" cy="571" r="4" fill="#4fd7e4"/>
<circle cx="46" cy="251" r="4" fill="#4fd7e4"/>
<circle cx="46" cy="571" r="4" fill="#4fd7e4"/>
<circle cx="270" cy="283" r="4" fill="#4fd7e4"/>
<circle cx="270" cy="603" r="4" fill="#4fd7e4"/>
<circle cx="46" cy="283" r="4" fill="#4fd7e4"/>
<circle cx="46" cy="603" r="4" fill="#4fd7e4"/>
<circle cx="270" cy="315" r="4" fill="#4fd7e4"/>
<circle cx="270" cy="635" r="4" fill="#4fd7e4"/>
<circle cx="46" cy="315" r="4" fill="#4fd7e4"/>
<circle cx="46" cy="635" r="4" fill="#4fd7e4"/>
<circle cx="270" cy="443" r="4" fill="#4fd7e4"/>
<circle cx="270" cy="123" r="4" fill="#4fd7e4"/>
<circle cx="270" cy="763" r="4" fill="#4fd7e4"/>
<circle cx="46" cy="443" r="4" fill="#4fd7e4"/>
<circle cx="46" cy="123" r="4" fill="#4fd7e4"/>
<circle cx="46" cy="763" r="4" fill="#4fd7e4"/>
<circle cx="270" cy="379" r="4" fill="#4fd7e4"/>
<circle cx="270" cy="59" r="4" fill="#4fd7e4"/>
<circle cx="270" cy="699" r="4" fill="#4fd7e4"/>
<circle cx="46" cy="379" r="4" fill="#4fd7e4"/>
<circle cx="46" cy="59" r="4" fill="#4fd7e4"/>
<circle cx="46" cy="699" r="4" fill="#4fd7e4"/>
<circle cx="270" cy="507" r="4" fill="#4fd7e4"/>
<circle cx="270" cy="187" r="4" fill="#4fd7e4"/>
<circle cx="270" cy="827" r="4" fill="#4fd7e4"/>
<circle cx="46" cy="507" r="4" fill="#4fd7e4"/>
<circle cx="46" cy="187" r="4" fill="#4fd7e4"/>
<circle cx="46" cy="827" r="4" fill="#4fd7e4"/>
<circle cx="270" cy="347" r="4" fill="#4fd7e4"/>
<circle cx="270" cy="27" r="4" fill="#4fd7e4"/>
<circle cx="270" cy="667" r="4" fill="#4fd7e4"/>
<circle cx="46" cy="347" r="4" fill="#4fd7e4"/>
<circle cx="46" cy="27" r="4" fill="#4fd7e4"/>
<circle cx="46" cy="667" r="4" fill="#4fd7e4"/>
<circle cx="270" cy="475" r="4" fill="#4fd7e4"/>
<circle cx="270" cy="155" r="4" fill="#4fd7e4"/>
<circle cx="270" cy="795" r="4" fill="#4fd7e4"/>
<circle cx="46" cy="475" r="4" fill="#4fd7e4"/>
<circle cx="46" cy="155" r="4" fill="#4fd7e4"/>
<circle cx="46" cy="795" r="4" fill="#4fd7e4"/>
<circle cx="270" cy="411" r="4" fill="#4fd7e4"/>
<circle cx="270" cy="91" r="4" fill="#4fd7e4"/>
<circle cx="270" cy="731" r="4" fill="#4fd7e4"/>
<circle cx="46" cy="411" r="4" fill="#4fd7e4"/>
<circle cx="46" cy="91" r="4" fill="#4fd7e4"/>
<circle cx="46" cy="731" r="4" fill="#4fd7e4"/>
<circle cx="270" cy="539" r="4" fill="#4fd7e4"/>
<circle cx="270" cy="219" r="4" fill="#4fd7e4"/>
<circle cx="270" cy="859" r="4" fill="#4fd7e4"/>
<circle cx="46" cy="539" r="4" fill="#4fd7e4"/>
<circle cx="46" cy="219" r="4" fill="#4fd7e4"/>
<circle cx="46" cy="859" r="4" fill="#4fd7e4"/>
<circle cx="238" cy="283" r="4" fill="#4fd7e4"/>
<circle cx="238" cy="603" r="4" fill="#4fd7e4"/>
<circle cx="238" cy="251" r="4" fill="#4fd7e4"/>
<circle cx="238" cy="571" r="4" fill="#4fd7e4"/>
<circle cx="238" cy="315" r="4" fill="#4fd7e4"/>
<circle cx="238" cy="635" r="4" fill="#4fd7e4"/>
<circle cx="238" cy="443" r="4" fill="#4fd7e4"/>
<circle cx="238" cy="123" r="4" fill="#4fd7e4"/>
<circle cx="238" cy="763" r="4" fill="#4fd7e4"/>
<circle cx="238" cy="347" r="4" fill="#4fd7e4"/>
<circle cx="238" cy="27" r="4" fill="#4fd7e4"/>
<circle cx="238" cy="667" r="4" fill="#4fd7e4"/>
<circle cx="238" cy="475" r="4" fill="#4fd7e4"/>
<circle cx="238" cy="155" r="4" fill="#4fd7e4"/>
<circle cx="238" cy="795" r="4" fill="#4fd7e4"/>
<circle cx="238" cy="379" r="4" fill="#4fd7e4"/>
<circle cx="238" cy="59" r="4" fill="#4fd7e4"/>
<circle cx="238" cy="699" r="4" fill="#4fd7e4"/>
<circle cx="238" cy="507" r="4" fill="#4fd7e4"/>
<circle cx="238" cy="187" r="4" fill="#4fd7e4"/>
<circle cx="238" cy="827" r="4" fill="#4fd7e4"/>
<circle cx="238" cy="411" r="4" fill="#4fd7e4"/>
<circle cx="238" cy="91" r="4" fill="#4fd7e4"/>
<circle cx="238" cy="731" r="4" fill="#4fd7e4"/>
<circle cx="238" cy="539" r="4" fill="#4fd7e4"/>
<circle cx="238" cy="219" r="4" fill="#4fd7e4"/>
<circle cx="238" cy="859" r="4" fill="#4fd7e4"/>
<circle cx="78" cy="251" r="4" fill="#4fd7e4"/>
<circle cx="78" cy="571" r="4" fill="#4fd7e4"/>
<circle cx="142" cy="251" r="4" fill="#4fd7e4"/>
<circle cx="142" cy="571" r="4" fill="#4fd7e4"/>
<circle cx="14" cy="251" r="4" fill="#4fd7e4"/>
<circle cx="14" cy="571" r="4" fill="#4fd7e4"/>
<circle cx="110" cy="251" r="4" fill="#4fd7e4"/>
<circle cx="110" cy="571" r="4" fill="#4fd7e4"/>
<circle cx="174" cy="251" r="4" fill="#4fd7e4"/>
<circle cx="174" cy="571" r="4" fill="#4fd7e4"/>
<circle cx="78" cy="347" r="4" fill="#4fd7e4"/>
<circle cx="78" cy="27" r="4" fill="#4fd7e4"/>
<circle cx="78" cy="667" r="4" fill="#4fd7e4"/>
<circle cx="142" cy="347" r="4" fill="#4fd7e4"/>
<circle cx="142" cy="27" r="4" fill="#4fd7e4"/>
<circle cx="142" cy="667" r="4" fill="#4fd7e4"/>
<circle cx="78" cy="475" r="4" fill="#4fd7e4"/>
<circle cx="78" cy="155" r="4" fill="#4fd7e4"/>
<circle cx="78" cy="795" r="4" fill="#4fd7e4"/>
<circle cx="142" cy="475" r="4" fill="#4fd7e4"/>
<circle cx="142" cy="155" r="4" fill="#4fd7e4"/>
<circle cx="142" cy="795" r="4" fill="#4fd7e4"/>
<circle cx="14" cy="347" r="4" fill="#4fd7e4"/>
<circle cx="14" cy="27" r="4" fill="#4fd7e4"/>
<circle cx="14" cy="667" r="4" fill="#4fd7e4"/>
<circle cx="110" cy="347" r="4" fill="#4fd7e4"/>
<circle cx="110" cy="27" r="4" fill="#4fd7e4"/>
<circle cx="110" cy="667" r="4" fill="#4fd7e4"/>
<circle cx="174" cy="347" r="4" fill="#4fd7e4"/>
<circle cx="174" cy="27" r="4" fill="#4fd7e4"/>
<circle cx="174" cy="667" r="4" fill="#4fd7e4"/>
<circle cx="14" cy="475" r="4" fill="#4fd7e4"/>
<circle cx="14" cy="155" r="4" fill="#4fd7e4"/>
<circle cx="14" cy="795" r="4" fill="#4fd7e4"/>
<circle cx="110" cy="475" r="4" fill="#4fd7e4"/>
<circle cx="110" cy="155" r="4" fill="#4fd7e4"/>
<circle cx="110" cy="795" r="4" fill="#4fd7e4"/>
<circle cx="174" cy="475" r="4" fill="#4fd7e4"/>
<circle cx="174" cy="155" r="4" fill="#4fd7e4"/>
<circle cx="174" cy="795" r="4" fill="#4fd7e4"/>
<circle cx="78" cy="283" r="4" fill="#4fd7e4"/>
<circle cx="78" cy="603" r="4" fill="#4fd7e4"/>
<circle cx="142" cy="283" r="4" fill="#4fd7e4"/>
<circle cx="142" cy="603" r="4" fill="#4fd7e4"/>
<circle cx="14" cy="283" r="4" fill="#4fd7e4"/>
<circle cx="14" cy="603" r="4" fill="#4fd7e4"/>
<circle cx="110" cy="283" r="4" fill="#4fd7e4"/>
<circle cx="110" cy="603" r="4" fill="#4fd7e4"/>
<circle cx="174" cy="283" r="4" fill="#4fd7e4"/>
<circle cx="174" cy="603" r="4" fill="#4fd7e4"/>
<circle cx="78" cy="379" r="4" fill="#4fd7e4"/>
<circle cx="78" cy="59" r="4" fill="#4fd7e4"/>
<circle cx="78" cy="699" r="4" fill="#4fd7e4"/>
<circle cx="142" cy="379" r="4" fill="#4fd7e4"/>
<circle cx="142" cy="59" r="4" fill="#4fd7e4"/>
<circle cx="142" cy="699" r="4" fill="#4fd7e4"/>
<circle cx="78" cy="507" r="4" fill="#4fd7e4"/>
<circle cx="78" cy="187" r="4" fill="#4fd7e4"/>
<circle cx="78" cy="827" r="4" fill="#4fd7e4"/>
<circle cx="142" cy="507" r="4" fill="#4fd7e4"/>
<circle cx="142" cy="187" r="4" fill="#4fd7e4"/>
<circle cx="142" cy="827" r="4" fill="#4fd7e4"/>
<circle cx="14" cy="379" r="4" fill="#4fd7e4"/>
<circle cx="14" cy="59" r="4" fill="#4fd7e4"/>
<circle cx="14" cy="699" r="4" fill="#4fd7e4"/>
<circle cx="110" cy="379" r="4" fill="#4fd7e4"/>
<circle cx="110" cy="59" r="4" fill="#4fd7e4"/>
<circle cx="110" cy="699" r="4" fill="#4fd7e4"/>
<circle cx="174" cy="379" r="4" fill="#4fd7e4"/>
<circle cx="174" cy="59" r="4" fill="#4fd7e4"/>
<circle cx="174" cy="699" r="4" fill="#4fd7e4"/>
<circle cx="14" cy="507" r="4" fill="#4fd7e4"/>
<circle cx="14" cy="187" r="4" fill="#4fd7e4"/>
<circle cx="14" cy="827" r="4" fill="#4fd7e4"/>
<circle cx="110" cy="507" r="4" fill="#4fd7e4"/>
<circle cx="110" cy="187" r="4" fill="#4fd7e4"/>
<circle cx="110" cy="827" r="4" fill="#4fd7e4"/>
<circle cx="174" cy="507" r="4" fill="#4fd7e4"/>
<circle cx="174" cy="187" r="4" fill="#4fd7e4"/>
<circle cx="174" cy="827" r="4" fill="#4fd7e4"/>
<circle cx="78" cy="315" r="4" fill="#4fd7e4"/>
<circle cx="78" cy="635" r="4" fill="#4fd7e4"/>
<circle cx="142" cy="315" r="4" fill="#4fd7e4"/>
<circle cx="142" cy="635" r="4" fill="#4fd7e4"/>
<circle cx="78" cy="443" r="4" fill="#4fd7e4"/>
<circle cx="78" cy="123" r="4" fill="#4fd7e4"/>
<circle cx="78" cy="763" r="4" fill="#4fd7e4"/>
<circle cx="142" cy="443" r="4" fill="#4fd7e4"/>
<circle cx="142" cy="123" r="4" fill="#4fd7e4"/>
<circle cx="142" cy="763" r="4" fill="#4fd7e4"/>
<circle cx="14" cy="315" r="4" fill="#4fd7e4"/>
<circle cx="14" cy="635" r="4" fill="#4fd7e4"/>
<circle cx="110" cy="315" r="4" fill="#4fd7e4"/>
<circle cx="110" cy="635" r="4" fill="#4fd7e4"/>
<circle cx="174" cy="315" r="4" fill="#4fd7e4"/>
<circle cx="174" cy="635" r="4" fill="#4fd7e4"/>
<circle cx="14" cy="443" r="4" fill="#4fd7e4"/>
<circle cx="14" cy="123" r="4" fill="#4fd7e4"/>
<circle cx="14" cy="763" r="4" fill="#4fd7e4"/>
<circle cx="110" cy="443" r="4" fill="#4fd7e4"/>
<circle cx="110" cy="123" r="4" fill="#4fd7e4"/>
<circle cx="110" cy="763" r="4" fill="#4fd7e4"/>
<circle cx="174" cy="443" r="4" fill="#4fd7e4"/>
<circle cx="174" cy="123" r="4" fill="#4fd7e4"/>
<circle cx="174" cy="763" r="4" fill="#4fd7e4"/>
<circle cx="78" cy="411" r="4" fill="#4fd7e4"/>
<circle cx="78" cy="91" r="4" fill="#4fd7e4"/>
<circle cx="78" cy="731" r="4" fill="#4fd7e4"/>
<circle cx="142" cy="411" r="4" fill="#4fd7e4"/>
<circle cx="142" cy="91" r="4" fill="#4fd7e4"/>
<circle cx="142" cy="731" r="4" fill="#4fd7e4"/>
<circle cx="78" cy="539" r="4" fill="#4fd7e4"/>
<circle cx="78" cy="219" r="4" fill="#4fd7e4"/>
<circle cx="78" cy="859" r="4" fill="#4fd7e4"/>
<circle cx="142" cy="539" r="4" fill="#4fd7e4"/>
<circle cx="142" cy="219" r="4" fill="#4fd7e4"/>
<circle cx="142" cy="859" r="4" fill="#4fd7e4"/>
<circle cx="14" cy="411" r="4" fill="#4fd7e4"/>
<circle cx="14" cy="91" r="4" fill="#4fd7e4"/>
<circle cx="14" cy="731" r="4" fill="#4fd7e4"/>
<circle cx="110" cy="411" r="4" fill="#4fd7e4"/>
<circle cx="110" cy="91" r="4" fill="#4fd7e4"/>
<circle cx="110" cy="731" r="4" fill="#4fd7e4"/>
<circle cx="174" cy="411" r="4" fill="#4fd7e4"/>
<circle cx="174" cy="91" r="4" fill="#4fd7e4"/>
<circle cx="174" cy="731" r="4" fill="#4fd7e4"/>
<circle cx="14" cy="539" r="4" fill="#4fd7e4"/>
<circle cx="14" cy="219" r="4" fill="#4fd7e4"/>
<circle cx="14" cy="859" r="4" fill="#4fd7e4"/>
<circle cx="110" cy="539" r="4" fill="#4fd7e4"/>
<circle cx="110" cy="219" r="4" fill="#4fd7e4"/>
<circle cx="110" cy="859" r="4" fill="#4fd7e4"/>
<circle cx="174" cy="539" r="4" fill="#4fd7e4"/>
<circle cx="174" cy="219" r="4" fill="#4fd7e4"/>
<circle cx="174" cy="859" r="4" fill="#4fd7e4"/>
</g>
</g>
</svg>
